HIERARCHY
ROOT RootJoint
{
    OFFSET   0.000000   0.000000   0.000000
    CHANNELS 6 Xposition Yposition Zposition Xrotation Yrotation Zrotation
    JOINT pelvis_lowerback
    {
        OFFSET   0.000000   0.093605   0.000000
        CHANNELS 3 Xrotation Yrotation Zrotation
        JOINT lowerback_torso
        {
            OFFSET   0.000000   0.100000   0.000000
            CHANNELS 3 Xrotation Yrotation Zrotation
            JOINT torso_head
            {
                OFFSET   0.000000   0.282350   0.000000
                CHANNELS 3 Xrotation Yrotation Zrotation
                End Site
                {
                    OFFSET   0.000000   0.192650   0.000000
                }
            }
            JOINT rTorso_Clavicle
            {
                OFFSET  -0.001000   0.157500   0.000000
                CHANNELS 3 Xrotation Yrotation Zrotation
                JOINT rShoulder
                {
                    OFFSET  -0.117647   0.000000   0.000000
                    CHANNELS 3 Xrotation Yrotation Zrotation
                    JOINT rElbow
                    {
                        OFFSET  -0.245000   0.000000   0.000000
                        CHANNELS 3 Xrotation Yrotation Zrotation
                        JOINT rWrist
                        {
                            OFFSET  -0.240000   0.000000   0.000000
                            CHANNELS 3 Xrotation Yrotation Zrotation
                            End Site
                            {
                                OFFSET  -0.116353  -0.002500   0.000000
                            }
                        }
                    }
                }
            }
            JOINT lTorso_Clavicle
            {
                OFFSET   0.001000   0.157500   0.000000
                CHANNELS 3 Xrotation Yrotation Zrotation
                JOINT lShoulder
                {
                    OFFSET   0.117647   0.000000   0.000000
                    CHANNELS 3 Xrotation Yrotation Zrotation
                    JOINT lElbow
                    {
                        OFFSET   0.245000   0.000000   0.000000
                        CHANNELS 3 Xrotation Yrotation Zrotation
                        JOINT lWrist
                        {
                            OFFSET   0.240000   0.000000   0.000000
                            CHANNELS 3 Xrotation Yrotation Zrotation
                            End Site
                            {
                                OFFSET   0.116353  -0.002500   0.000000
                            }
                        }
                    }
                }
            }
        }
    }
    JOINT rHip
    {
        OFFSET  -0.100000  -0.051395   0.000000
        CHANNELS 3 Xrotation Yrotation Zrotation
        JOINT rKnee
        {
            OFFSET   0.000000  -0.410000   0.000000
            CHANNELS 3 Xrotation Yrotation Zrotation
            JOINT rAnkle
            {
                OFFSET   0.000000  -0.390000   0.000000
                CHANNELS 3 Xrotation Yrotation Zrotation
                JOINT rToeJoint
                {
                    OFFSET   0.000000  -0.050000   0.130000
                    CHANNELS 3 Xrotation Yrotation Zrotation
                    End Site
                    {
                        OFFSET  -0.010000   0.002000   0.060000
                    }
                }
            }
        }
    }
    JOINT lHip
    {
        OFFSET   0.100000  -0.051395   0.000000
        CHANNELS 3 Xrotation Yrotation Zrotation
        JOINT lKnee
        {
            OFFSET   0.000000  -0.410000   0.000000
            CHANNELS 3 Xrotation Yrotation Zrotation
            JOINT lAnkle
            {
                OFFSET   0.000000  -0.390000   0.000000
                CHANNELS 3 Xrotation Yrotation Zrotation
                JOINT lToeJoint
                {
                    OFFSET   0.000000  -0.050000   0.130000
                    CHANNELS 3 Xrotation Yrotation Zrotation
                    End Site
                    {
                        OFFSET   0.010000   0.002000   0.060000
                    }
                }
            }
        }
    }
}
MOTION
Frames: 14
Frame Time:   0.008333
 -2.346751   0.902925   5.364884  -2.284372   0.219024   1.821384   4.173233  -0.168095  -6.747901   9.410603  -2.647438  -2.149295   2.570469  -0.183652  -0.143461   2.345624   6.191302  17.943132   3.331633  11.311538  39.349644   0.000868  19.499090  -0.001639  12.794822   2.303288  -0.388758   1.285173  -7.029117 -16.643060   3.680173 -14.790769 -32.061700  -0.003643 -23.114178  -0.001998  10.190909  -5.855335   2.364158 -19.938973  -2.552967  -9.378203  44.224455  -0.004797  -0.022779 -11.626120  -9.166086   0.861168  -2.682132   0.000139  -0.000309   2.749303   2.892512  -3.816575  16.267552  -0.000129  -0.003124 -16.366259   1.545788   3.582111  -0.594087  -0.000157  -0.000069
 -2.347045   0.902355   5.372378  -2.255507   0.440440   1.799506   4.152309  -0.232860  -6.698304   9.363462  -2.731636  -2.093686   2.533059  -0.129033  -0.218545   2.388112   6.092183  17.962452   3.415086  11.073910  39.278868   0.000740  19.375664  -0.001455  12.735008   2.313477  -0.442786   1.254864  -7.046103 -16.622370   3.406118 -14.961029 -31.990942  -0.003853 -23.442587  -0.002257  10.198997  -5.812971   2.381387 -20.430302  -2.319222  -9.295809  42.085639  -0.005654  -0.025391 -11.437188  -9.157833   0.944885  -2.745571   0.000352  -0.000481   3.352716   2.903763  -3.714026  16.021097  -0.000041  -0.003122 -16.635182   1.275383   3.342563  -0.749706  -0.000307  -0.000050
 -2.347355   0.901727   5.379846  -2.209340   0.654854   1.794102   4.132010  -0.292925  -6.657040   9.308818  -2.812553  -2.043363   2.493709  -0.076080  -0.293132   2.436145   5.995336  17.978973   3.498871  10.845884  39.215642   0.000614  19.256680  -0.001279  12.678526   2.308459  -0.479175   1.218900  -7.065821 -16.595470   3.144329 -15.128548 -31.924587  -0.003975 -23.757933  -0.002405  10.200112  -5.820285   2.403070 -20.933676  -2.077311  -9.245559  39.954442  -0.006209  -0.027283 -11.261201  -9.147178   1.023679  -2.771628   0.000377  -0.000481   3.932984   2.912087  -3.626602  15.779165   0.000037  -0.003085 -16.886619   1.016687   3.110837  -0.931493  -0.000443  -0.000034
 -2.347752   0.900610   5.387324  -2.155446   0.872695   1.720720   4.105479  -0.357064  -6.558453   9.247143  -2.893287  -1.968038   2.457935  -0.026087  -0.360793   2.487331   5.896095  17.965357   3.581679  10.627075  39.148325   0.000532  19.145050  -0.001133  12.624730   2.300391  -0.501955   1.183115  -7.084156 -16.554442   2.897687 -15.289465 -31.863392  -0.004072 -24.057570  -0.002445  10.201844  -5.858703   2.422320 -21.458381  -1.852129  -9.148419  37.944585  -0.006557  -0.028447 -11.099246  -9.136350   1.097263  -2.803502   0.000413  -0.000503   4.513874   2.908181  -3.461455  15.576454   0.000112  -0.002939 -16.875559   0.763474   2.952522  -3.381838  -0.001164   0.000629
 -2.348128   0.899709   5.394839  -2.114143   1.092408   1.749151   4.092766  -0.423143  -6.548033   9.204231  -2.976040  -1.923988   2.423088   0.020076  -0.424769   2.534572   5.807556  17.991394   3.658035  10.422816  39.095004   0.000421  19.037233  -0.000985  12.572749   2.272120  -0.536490   1.141710  -7.107718 -16.523267   2.665392 -15.438580 -31.793086  -0.004007 -24.332723  -0.002422  10.206550  -5.878193   2.469565 -21.969712  -1.616373  -9.167774  36.037944  -0.006549  -0.028597 -10.947906  -9.126373   1.165247  -2.826067   0.000406  -0.000482   5.093701   2.913026  -3.401990  15.377956   0.000151  -0.002835 -17.275981   0.544980   2.705509  -3.037849  -0.000523   0.000653
 -2.348553   0.898906   5.402416  -2.076572   1.315426   1.780865   4.083181  -0.488437  -6.529947   9.169591  -3.057570  -1.885648   2.392039   0.063149  -0.487542   2.582812   5.722753  18.020224   3.731232  10.231016  39.051854   0.000311  18.936132  -0.000844  12.522951   2.243252  -0.555499   1.103535  -7.131706 -16.499284   2.448041 -15.580279 -31.733620  -0.003852 -24.590564  -0.002351  10.211057  -5.898440   2.513200 -22.468133  -1.391028  -9.187580  34.250430  -0.006169  -0.028342 -10.807283  -9.117171   1.228333  -2.848831   0.000399  -0.000464   5.657736   2.912121  -3.339682  15.206988   0.000181  -0.002680 -17.575219   0.331429   2.486301  -2.936919  -0.000328   0.000558
 -2.349044   0.898132   5.410060  -2.038104   1.544406   1.803422   4.072501  -0.553814  -6.499934   9.138738  -3.137197  -1.843408   2.363578   0.103362  -0.545707   2.631489   5.640485  18.046816   3.801567  10.049944  39.014015   0.000214  18.841159  -0.000714  12.475237   2.214900  -0.563241   1.069613  -7.154405 -16.479408   2.245664 -15.713623 -31.682803  -0.003653 -24.831939  -0.002253  10.214719  -5.922671   2.546991 -22.955342  -1.179173  -9.195646  32.583337  -0.005565  -0.027805 -10.676599  -9.108265   1.287135  -2.873702   0.000399  -0.000457   6.209305   2.906717  -3.261143  15.055263   0.000204  -0.002510 -17.824560   0.128275   2.290321  -2.986045  -0.000294   0.000427
 -2.349578   0.897247   5.417802  -1.980283   1.716752   1.857071   4.015538  -0.577876  -6.508995   9.128958  -3.173785  -1.810482   2.333026   0.157843  -0.636411   2.695880   5.570611  18.090324   3.909825   9.883451  38.970156   0.000087  18.716428  -0.000536  12.462811   2.213417  -0.560452   1.049417  -7.173370 -16.467481   2.043394 -15.865618 -31.614221  -0.003579 -25.102236  -0.002250  10.211075  -5.886626   2.525874 -23.461769  -0.989761  -9.220530  30.901848  -0.004399  -0.026270 -10.424939  -9.038494   1.443532  -2.936432   0.000583  -0.000563   6.787671   2.911534  -3.210405  14.830368   0.000291  -0.002477 -18.033841  -0.081913   2.037694  -3.095511  -0.000353   0.000342
 -2.350159   0.896249   5.425603  -1.922195   1.882637   1.923343   3.959143  -0.599328  -6.527004   9.117055  -3.206610  -1.786901   2.303080   0.210331  -0.726124   2.762944   5.503528  18.138143   4.015657   9.724268  38.935238  -0.000022  18.596308  -0.000386  12.453435   2.196571  -0.533685   1.026572  -7.193067 -16.455235   1.851703 -16.011489 -31.549429  -0.003464 -25.357708  -0.002220  10.208292  -5.864258   2.508772 -23.971670  -0.812328  -9.246618  29.301015  -0.003135  -0.024594 -10.190066  -8.971749   1.589666  -2.985885   0.000673  -0.000598   7.364042   2.910949  -3.168934  14.617708   0.000364  -0.002407 -18.242617  -0.281969   1.793544  -3.259809  -0.000444   0.000276
 -2.350784   0.895156   5.433475  -1.866868   2.048088   1.997608   3.904715  -0.622148  -6.548867   9.105836  -3.240572  -1.768188   2.274740   0.259535  -0.811359   2.829033   5.438938  18.187461   4.116433   9.573764  38.906394  -0.000111  18.482873  -0.000266  12.444595   2.173225  -0.496600   1.003705  -7.213228 -16.444930   1.671801 -16.149351 -31.489553  -0.003309 -25.596862  -0.002152  10.206135  -5.848237   2.495242 -24.476342  -0.643606  -9.269065  27.795922  -0.001894  -0.022931  -9.971630  -8.908630   1.725602  -3.032699   0.000732  -0.000614   7.935686   2.902423  -3.130761  14.428040   0.000418  -0.002293 -18.450185  -0.474771   1.561394  -3.481131  -0.000544   0.000228
 -2.351451   0.893980   5.441425  -1.812918   2.213379   2.078225   3.850818  -0.646049  -6.572370   9.095198  -3.275503  -1.752745   2.248101   0.305467  -0.891558   2.893225   5.376779  18.236716   4.211840   9.431804  38.881981  -0.000180  18.376191  -0.000171  12.436106   2.147191  -0.455092   0.982256  -7.233078 -16.437505   1.503730 -16.278918 -31.435269  -0.003124 -25.820276  -0.002058  10.204119  -5.835114   2.481765 -24.971010  -0.483321  -9.286236  26.385830  -0.000721  -0.021305  -9.768320  -8.848956   1.852065  -3.077366   0.000767  -0.000616   8.500898   2.886472  -3.094122  14.262109   0.000452  -0.002146 -18.652551  -0.661074   1.341557  -3.760583  -0.000637   0.000195
 -2.352157   0.892729   5.449457  -1.757860   2.378055   2.164278   3.796138  -0.670182  -6.596233   9.084170  -3.310616  -1.739794   2.222917   0.348314  -0.966717   2.955071   5.317074  18.284888   4.301900   9.298083  38.860947  -0.000234  18.276048  -0.000095  12.427934   2.120010  -0.411741   0.962899  -7.252058 -16.433042   1.347130 -16.400258 -31.386603  -0.002923 -26.028798  -0.001948  10.202003  -5.823564   2.466485 -25.452616  -0.331518  -9.297429  25.066505   0.000359  -0.019728  -9.579022  -8.792575   1.969738  -3.119996   0.000784  -0.000608   9.057797   2.863953  -3.058242  14.118667   0.000469  -0.001979 -18.846615  -0.841307   1.134119  -4.097298  -0.000711   0.000176
 -2.352900   0.891410   5.457572  -1.699048   2.541698   2.255116   3.739750  -0.693768  -6.619639   9.071782  -3.345181  -1.728805   2.198925   0.388283  -1.036999   3.014223   5.259917  18.331274   4.386682   9.172315  38.842509  -0.000274  18.182189  -0.000034  12.420065   2.092582  -0.368016   0.945846  -7.269840 -16.431196   1.201438 -16.513617 -31.343189  -0.002716 -26.223327  -0.001828  10.199704  -5.812974   2.448834 -25.918995  -0.188159  -9.302409  23.833006   0.001330  -0.018208  -9.402734  -8.739340   2.079255  -3.160663   0.000787  -0.000592   9.604538   2.835674  -3.022671  13.995935   0.000471  -0.001801 -19.030413  -1.015854   0.938986  -4.489040  -0.000754   0.000169
 -2.353686   0.890023   5.465829  -1.666711   2.688622   2.374003   3.684386  -0.710937  -6.671541   9.079574  -3.365857  -1.723560   2.187105   0.393083  -1.110809   3.064412   5.228476  18.401202   4.507489   9.078843  38.809950  -0.000383  18.041625   0.000120  12.466978   2.076047  -0.329934   0.930317  -7.283319 -16.443139   1.085201 -16.618388 -31.300804  -0.002459 -26.392344  -0.001684  10.196522  -5.802395   2.422537 -26.424587  -0.133841  -9.321229  22.913962   0.002277  -0.015439  -9.158820  -8.728164   2.161911  -3.186646   0.000720  -0.000503  10.172253   2.790857  -3.002618  13.898287   0.000469  -0.001593 -19.150909  -1.170599   0.632744  -5.015035  -0.001332   0.000173
